<svg width="1536" height="1024" viewBox="0 0 1536 1024" fill="none" xmlns="http://www.w3.org/2000/svg">
  <rect width="1536" height="1024" fill="#C9D8E3"/>
  <g stroke="#2EA3EA" stroke-width="4" stroke-linecap="round" opacity="0.85">
    <path d="M-80 70C40 10 110 120 230 70C350 20 420 140 540 90C660 40 730 120 850 80C970 40 1040 130 1160 90C1280 50 1350 140 1470 95C1590 50 1660 120 1780 90"/>
    <path d="M-120 190C0 130 90 240 220 190C350 140 450 260 570 210C690 160 790 240 920 200C1050 160 1140 260 1260 210C1380 160 1470 250 1600 205"/>
    <path d="M-90 320C30 260 120 360 240 320C360 280 470 390 600 345C730 300 840 390 960 350C1080 310 1190 400 1320 360C1450 320 1560 400 1680 360"/>
    <path d="M-120 450C10 390 130 500 250 455C370 410 470 520 600 470C730 420 830 510 960 470C1090 430 1190 530 1320 485C1450 440 1550 530 1680 490"/>
    <path d="M-80 580C40 520 150 620 270 585C390 550 500 650 620 610C740 570 850 660 980 620C1110 580 1230 680 1350 640C1470 600 1580 690 1710 650"/>
    <path d="M-100 710C30 650 140 760 260 720C380 680 500 780 630 740C760 700 870 790 990 750C1110 710 1220 800 1350 760C1480 720 1580 810 1710 770"/>
    <path d="M-120 840C10 780 120 880 250 845C380 810 490 900 610 860C730 820 850 920 980 880C1110 840 1230 940 1360 900C1490 860 1600 950 1720 910"/>
    <path d="M-90 960C30 900 140 1000 270 965C400 930 510 1020 630 985C750 950 860 1040 990 1000C1120 960 1230 1050 1360 1015C1490 980 1600 1060 1720 1020"/>
  </g>
  <g stroke="#6EC0F2" stroke-width="3" stroke-linecap="round" opacity="0.55">
    <path d="M-100 130C20 80 100 180 230 145C360 110 430 200 560 165C690 130 770 220 900 185C1030 150 1110 240 1240 205C1370 170 1450 250 1580 220"/>
    <path d="M-80 390C40 340 120 430 250 400C380 370 460 460 590 430C720 400 800 490 930 460C1060 430 1140 520 1270 490C1400 460 1480 540 1610 510"/>
    <path d="M-120 650C10 600 100 700 230 665C360 630 440 720 570 690C700 660 780 750 910 720C1040 690 1120 780 1250 745C1380 710 1460 800 1590 770"/>
    <path d="M-100 910C20 860 110 960 240 930C370 900 450 990 580 960C710 930 790 1020 920 990C1050 960 1130 1050 1260 1020C1390 990 1470 1070 1600 1040"/>
  </g>
</svg>
