<svg width="512" height="512" viewBox="0 0 512 512" fill="none" xmlns="http://www.w3.org/2000/svg">
  <defs>
    <radialGradient id="g1" cx="0" cy="0" r="1" gradientUnits="userSpaceOnUse" gradientTransform="translate(256 256) rotate(90) scale(220 220)">
      <stop stop-color="#F06BFF"/>
      <stop offset="1" stop-color="#B221E6"/>
    </radialGradient>
    <linearGradient id="g2" x1="160" y1="120" x2="360" y2="360" gradientUnits="userSpaceOnUse">
      <stop stop-color="#FF8BFF"/>
      <stop offset="1" stop-color="#B036F2"/>
    </linearGradient>
    <filter id="glow" x="-80" y="-80" width="672" height="672" filterUnits="userSpaceOnUse">
      <feGaussianBlur stdDeviation="32" result="b"/>
      <feMerge>
        <feMergeNode in="b"/>
        <feMergeNode in="SourceGraphic"/>
      </feMerge>
    </filter>
  </defs>

  <rect width="512" height="512" rx="120" fill="#6C6D74"/>
  <circle cx="256" cy="290" r="170" fill="url(#g1)" opacity="0.35" filter="url(#glow)"/>

  <g>
    <circle cx="248" cy="214" r="100" fill="url(#g2)" stroke="#8C1ED4" stroke-width="6"/>
    <ellipse cx="188" cy="210" rx="24" ry="28" fill="#5A1CA9"/>
    <ellipse cx="307" cy="210" rx="24" ry="28" fill="#5A1CA9"/>
    <circle cx="178" cy="203" r="8" fill="#F2F5FF"/>
    <circle cx="197" cy="197" r="10" fill="#F2F5FF"/>
    <circle cx="297" cy="203" r="8" fill="#F2F5FF"/>
    <circle cx="316" cy="197" r="10" fill="#F2F5FF"/>
    <path d="M226 243C238 257 258 257 270 243" stroke="#4A0F7A" stroke-width="8" stroke-linecap="round"/>
  </g>

  <g fill="url(#g2)" stroke="#8C1ED4" stroke-width="5">
    <ellipse cx="145" cy="318" rx="48" ry="26" transform="rotate(-20 145 318)"/>
    <ellipse cx="367" cy="318" rx="48" ry="26" transform="rotate(20 367 318)"/>
    <ellipse cx="160" cy="378" rx="50" ry="24" transform="rotate(-30 160 378)"/>
    <ellipse cx="352" cy="378" rx="50" ry="24" transform="rotate(30 352 378)"/>
    <ellipse cx="205" cy="410" rx="44" ry="24" transform="rotate(-38 205 410)"/>
    <ellipse cx="307" cy="410" rx="44" ry="24" transform="rotate(38 307 410)"/>
    <ellipse cx="248" cy="426" rx="40" ry="56"/>
  </g>

  <g>
    <circle cx="382" cy="98" r="40" fill="#62BDFF" opacity="0.5" stroke="#42A9F2" stroke-width="5"/>
    <circle cx="334" cy="140" r="20" fill="#62BDFF" opacity="0.5" stroke="#42A9F2" stroke-width="4"/>
    <circle cx="382" cy="98" r="13" fill="#F2F5FF" opacity="0.85"/>
    <circle cx="338" cy="136" r="7" fill="#F2F5FF" opacity="0.85"/>
  </g>
</svg>
